/* XPM */
static char *green_block[] = {
/* columns rows colors chars-per-pixel */
"64 64 20 1 ",
"  c #a9a0a9",
". c #a0a0a0",
"X c #cCcCcC",
"o c gray22",
"O c #004000",
"+ c #004C00",
"@ c #005800",
"# c #006400",
"$ c #007000",
"% c #007C00",
"& c gray33",
"* c #008800",
"= c #009800",
"- c #00A400",
"; c #00B000",
": c #00BC00",
"> c #00D400",
", c #00FC00",
"< c #20FC24",
"1 c #40FC40",
/* pixels */
"$$$$$$$$$$$$$$$$$$$$$$$$$$$oo$$$$$$$$$$$$$oo$$$$$$$$$$$$o$$$$$oo",
"=====================***%$$ .========*%%%% .========%%#@ ----* .",
"===%=$==*$**$***$$=%$$$$#@+ .==**%==*%%%%+ .=;-;-;;;;;*$ --%*%  ",
"=*$%***$$=*=@**@%$$**$$#@@+ .=*==%**$%$=#+ .=-;;=;:-;=*$ ==-*+  ",
"=%=#*#*$$$*%%$@%#*@$#@@+++@ .=*%%**$%$#+@+ .=;-=:;-=*%%# %#$$+  ",
"=%$===@$$$=***%%$#@$$$##@+@ .==%==$###%@++ .=;=:<:=;=*#$ *%#@+  ",
"=**--===*===**#%+$@$$$$#+++ .===%%$#%%%#@+ .=-;=;;==-$$# *$+++  ",
"==*=--=*$@==*%%$###@$$#@+@@ .==%$%%%$%$@++ .=-;-=---=$#$ *@+@+  ",
"=*$*==%*$*##%%%@@$%+###@@++ .=*%%#%==$#$+@ .=-:--%%==*#@        ",
"=%%%=$$$==#+@+#+%#$#@##@+++ .=%%#$$%%#@+@+ .=-;=-%%%*%@+ *---=  ",
"*$%=%%#*==##+++#@$#@#$$#+@+ .*%$##%%#$@+@+ .=-;;=%%%%$@@ =-*-%  ",
"*%*$$=%@$+$++++@@%OO+$$$+++ .*%$###%+#+#++ .=-;;-=%%*$@@ *=%*@  ",
"*$*$@%%$@$@$@+#+#+OOO+##+@+ .*$%##@@#@+@@+ .=-;;=**$%#++ *=*#+  ",
"**$$$#@++@$@#@@++++OO++++++ .%%##@++++@+@+ .=-=;%*%*$$+@ %%$@#  ",
"*$*@@#@$@#++@+@@@@+++++++++ .%@%@@++++++++ .*;-;;%=%#@++ $#@++  ",
"                            .              .*;-=**%%@+@+        ",
";-=-=====-====..............................*-;*;$*$$@++ #:::::#",
"-=*=;-=%==$=*$ ..@$*$**==$$++OO...+#**=%$##.*;-;**:*$#@+ %::>;:%",
"-**%==%$**$$** .@$****=-==%@##@+..#*=$%$%$@ **=-;**$$#+@ =:>,>-%",
"=*--**$$$*$$$$ .***-=--$%*@#@+@#..$=$#@$@+$ %--;-*%$@+@@ =::>-:$",
"%*-;-$$**$*+$$ O-*-%-=$+#$#++@#$ .%%=$##+#@ %;--##%$#@@+ -::-=-#",
"=%*--$*$$@@#$$ O==--=-*#$#+@@@+# .#=%%@+$++ $===###$#+++ ;::-:=#",
"%$%*=*$$*@#$++ +=--=:*%$#@@@+##+ .##@++@+@@ $*==%###@+++ -:-;-=$",
"=%*$*$**$#$@$+ #*==%$%%##$#@#++# ..         $**;$$###+@+ -:-=*;$",
"-*%-****$$#+++ #*=%$*%#+##*#$#$# ==;;==**% .**=**$##+@++ =::-::$",
"=%$%--@$*%%#+@ #*%$-=*$#$%:-%#@# =;;=*%#%$ .*;-=*$$#@@@+ =:-:;-$",
"*$%=--=*$%%#+@ +%%$*-**%%*-%$$#$ =*==%#=#@ .=;-;=*%#@+@@ =:::-=#",
"*-**=-=@$###++ O$$%-1-%=*$*%#%@$ ==*$%=%## .=-=;=*$#@@#+ %:::--$",
"%%==*==@#+@+++ O$$%*-==*==%*$+$+ ===*=##%# .==*=%*%$+++@ %:-::=#",
"*%===*$#@+@OO+  $%*=%=%=-#-#+@#+ =:-=%#@@@ .=*=%$$$$++++ %::;--#",
"%*%==$@@+++OO@  @$$*$*=*=-#+@$++ =*-=%###@ .=*;=*%##+#++ %::-*=@",
"%%$%%$@@#$$@+@ .+@$$$$*=#$*#$+++ =**=$@@#+ .==-;=%#@$$++ %:-:-*@",
"%=*#$$#@#$$@++ ..O+++++++++++++O =*=@#$#@+ .==--==*$@$@+ %:-:%%@",
"=*%%$@@+@##@++ ...               ==%$@@@++ .=;;=****%@++ %::%*%@",
"**%$$$$+@O++@+ ..@@@@@@###@@@@+..=%%#++@++ .=;;=*$**%$#+ #:-:**O",
"%%$#$$$+OOO+++ ..@#$**$*%%$$@@+ .==%$@+@++ .=*;*;$#%$#@+ #:-**%O",
"%@#$@$$+OOOO@+ ..@$**%*$#%##%#+ .==$*#@+++ .===-**##@@@+ #--*%%O",
"*$@$@#+@O+OO++ ..@*%#**#%#+#*## .==*=$#@++ .=;=**#++#+++ #-*%*%O",
"%*%#$#+++OOO++ ..@*$*$$*#%@+##+ .=*=*%$#@@ .=;*=*#@++#++ #-***%O",
"*%$@#$#++@++@@ ..@%**$#@+@++@++ .==%$$#@@+ .*-**$$#@@+++ #***$*O",
"               ..@*%$@++@++###+ .**$$@#+@+ .*=*$+$++@+++ .      ",
".....++##%%%$#@++.              .*=$@##++@ .%$+@+##@++++ .####. ",
".*=-;;;;;;;;;;;;---==**$.........**$#@++++ .%$@@++++@+#+ .#+$+. ",
".=;;;;;-=-;===;==--$%%%@ .++@@#..*$%#+++++ ..            .+++#. ",
".=;--=--;;;*=;;;-=%-@$+@ .+*%-$ .%$%@#@+@@ .................... ",
".;;;--;;**=;;*-%=**$%@+@ .+=-*+ .$$@#@++++ ..;;;;;;;;;;;;;---=. ",
".;=-=---***;=%%=$***$#++ .@--=% ..         ..;;;;--==---==-;=%  ",
".;;-*%--=**=;;===$**$++@ .@=%#+ .%*=-===*%%..;--;-=::=-=*;;**%  ",
".;;*=;-%=---$==,=*@#@+@+ .#*#++ .*=-=*-*-## .;;--=;;:$$*%$*#%$  ",
".;;;;=%;%-$$=%==*$**$@@@ .#%@+@ .=--=%$%#+@ .;-;-=--=$$$*=$$$#  ",
".;=;*==;-*$$$==#$*$$@+$+ ..     .*=%%$#+@++ .;;->>=*=*$$=%%*@+  ",
".;-**;>;=%=$$==%%$*##@++ ........           .;-=>>:;-=*-$#**@+  ",
".;=;=>1>**=*%$%%%%$OO+@+ .***=======***%%##..;-=*::=*$*$%**$@+  ",
".;-;-;>;=$==@@@$%%#OOO++ .*=*%=%*==%*=$$##+ .;==-*%*%=%$%=%#@+  ",
".;=;---%%%$#@@@@###+OO++ .**%%%===-*%%%@#++ .;;=**%%$%***%#@++  ",
".=;--=$$*=**$@@@@#@+$+++ .=%==-*=*===*%$#+@ .;-=*$$$#$%*$@+@#+  ",
".;=;-%%-$==*#$+#$$+@+++@ .==%=*%$%*==*%$+@@ .;-;-=%#++$#++OO@+  ",
".;=;=*%$@%==*#@+$$$+@+@+ .*%=*%=$%***%$#@++ .;;==$$*++@#++OOO+  ",
".-=%%%=@%@%**##@$$$++#++ .*=%$$$%#$$%$#@+++ .-*=*;*$$@#+#++OO+  ",
".-=#@%@=$$*+@++@+$$++@@+ .%*=$#$@$#$###+@@+ .-;=$*##$+@+++@@@+  ",
".==%%@%+@+@#@#@#++++++++ .%*%$#@##@+#++@@++ .=$*$%*$#@+@+@++++  ",
".=*$%*######@@@@@@@@@@@@ .%$######@@@@@@#@#..=*$%$##@@@@@@@@@@..",
"o$$$$$$$$$$$$$$$$$$$$$$$oo$$$$$$$$$$$$$$$$$oo$$$$$$$$$$$$$$$$$XX",
"&&&&&&&&&&&&&&&&&&&&&&&&&&&&&&&&&&&&&&&&&&&&&&&&&&&&&&&&&&&&&&&o"
};